<?xml version="1.0" encoding="UTF-8"?>
<svg width="512" height="512" viewBox="0 0 512 512" fill="none" xmlns="http://www.w3.org/2000/svg">
    <defs>
        <linearGradient id="paint0_linear" x1="0" y1="0" x2="512" y2="512" gradientUnits="userSpaceOnUse">
            <stop offset="0%" style="stop-color:#4F46E5"/>
            <stop offset="50%" style="stop-color:#7C3AED"/>
            <stop offset="100%" style="stop-color:#D946EF"/>
        </linearGradient>
        <filter id="glow" x="-50%" y="-50%" width="200%" height="200%">
            <feGaussianBlur in="SourceGraphic" stdDeviation="8"/>
        </filter>
    </defs>
    <g filter="url(#glow)">
        <path d="M256 64C150.5 64 64 150.5 64 256C64 361.5 150.5 448 256 448C361.5 448 448 361.5 448 256C448 150.5 361.5 64 256 64ZM256 416C168.1 416 96 343.9 96 256C96 168.1 168.1 96 256 96C343.9 96 416 168.1 416 256C416 343.9 343.9 416 256 416Z" fill="url(#paint0_linear)"/>
        <path d="M256 128C187.3 128 132 183.3 132 252C132 320.7 187.3 376 256 376C324.7 376 380 320.7 380 252C380 183.3 324.7 128 256 128ZM256 344C205 344 164 303 164 252C164 201 205 160 256 160C307 160 348 201 348 252C348 303 307 344 256 344Z" fill="white" fill-opacity="0.9"/>
        <circle cx="256" cy="252" r="64" fill="url(#paint0_linear)" fill-opacity="0.9"/>
        <circle cx="256" cy="252" r="32" fill="white"/>
        <circle cx="272" cy="236" r="12" fill="white" fill-opacity="0.8"/>
    </g>
</svg>
